<svg xmlns="http://www.w3.org/2000/svg" xmlns:xlink="http://www.w3.org/1999/xlink" width="2800" zoomAndPan="magnify" viewBox="0 0 2100 899.99999" height="1200" preserveAspectRatio="xMidYMid meet" version="1.0"><defs><g/><clipPath id="1214540133"><path d="M 6.324219 90 L 437.738281 90 L 437.738281 726 L 6.324219 726 Z M 6.324219 90 " clip-rule="nonzero"/></clipPath><clipPath id="3f28b604eb"><path d="M 43.417969 505.167969 C 43.417969 514.476562 39.011719 522.019531 33.5625 522.019531 C 28.113281 522.019531 23.707031 514.476562 23.707031 505.167969 C 23.707031 495.859375 28.125 488.316406 33.5625 488.316406 C 39.011719 488.316406 43.417969 495.859375 43.417969 505.167969 M 219.960938 545.527344 C 230.417969 545.527344 238.886719 526.773438 238.886719 503.648438 C 238.886719 480.507812 230.417969 461.757812 219.960938 461.757812 C 209.519531 461.757812 201.046875 480.507812 201.046875 503.648438 C 201.035156 526.773438 209.519531 545.527344 219.960938 545.527344 Z M 313.214844 503.636719 C 313.214844 526.761719 321.6875 545.515625 332.128906 545.515625 C 342.585938 545.515625 351.054688 526.761719 351.054688 503.636719 C 351.054688 480.5 342.585938 461.746094 332.128906 461.746094 C 321.6875 461.757812 313.214844 480.507812 313.214844 503.636719 Z M 200.207031 608.109375 C 152.070312 587.792969 119.582031 549.304688 119.582031 505.167969 C 119.582031 439.867188 190.675781 386.929688 278.386719 386.929688 C 364.007812 386.929688 433.792969 437.371094 437.066406 500.53125 C 434.714844 427.160156 396.90625 299.824219 358.886719 240.347656 C 348.496094 265.792969 354.226562 293.90625 342.28125 318.617188 C 287.109375 275.207031 286.878906 168.175781 252.261719 90 C 250.519531 195.582031 179.046875 203.527344 148.34375 300.589844 C 138.402344 279.980469 135.957031 255.320312 140.996094 226.621094 C 79.570312 290.359375 30.402344 377.539062 32.566406 449.324219 C 45.949219 454.621094 55.511719 466.960938 57.054688 481.570312 C 52.320312 467.8125 43.574219 458.578125 33.5625 458.578125 C 31.957031 458.578125 30.382812 458.820312 28.839844 459.269531 C 16.054688 463.101562 6.324219 482.199219 6.324219 505.167969 C 6.324219 528.136719 16.054688 547.234375 28.847656 551.054688 C 44.101562 596.835938 81.625 634.96875 131.148438 656.964844 L 200.207031 726.011719 L 200.207031 675.644531 C 209.707031 676.746094 219.40625 677.320312 229.261719 677.320312 C 314.160156 677.320312 387.175781 635.167969 419.464844 574.769531 C 440.667969 529.722656 427.316406 475.597656 386.964844 445.703125 C 433.589844 509.859375 419.328125 579.753906 347.65625 609.921875 C 327.363281 618.464844 303.863281 623.417969 278.386719 623.417969 C 270.042969 623.417969 261.84375 622.933594 253.835938 622.011719 L 203.324219 672.503906 L 200.199219 675.640625 L 200.199219 608.109375 Z M 200.207031 608.109375 " clip-rule="nonzero"/></clipPath><linearGradient x1="206.897" gradientTransform="matrix(1.049671, 0, 0, 1.049332, 6.323053, 90.000019)" y1="606.09991" x2="206.897" gradientUnits="userSpaceOnUse" y2="-0.0000035737" id="1590fee803"><stop stop-opacity="1" stop-color="rgb(98.399353%, 20.799255%, 3.09906%)" offset="0"/><stop stop-opacity="1" stop-color="rgb(98.399353%, 20.799255%, 3.09906%)" offset="0.03125"/><stop stop-opacity="1" stop-color="rgb(98.394775%, 20.98999%, 3.146362%)" offset="0.046875"/><stop stop-opacity="1" stop-color="rgb(98.38562%, 21.360779%, 3.237915%)" offset="0.0546875"/><stop stop-opacity="1" stop-color="rgb(98.377991%, 21.720886%, 3.326416%)" offset="0.0625"/><stop stop-opacity="1" stop-color="rgb(98.370361%, 22.080994%, 3.416443%)" offset="0.0703125"/><stop stop-opacity="1" stop-color="rgb(98.362732%, 22.441101%, 3.504944%)" offset="0.078125"/><stop stop-opacity="1" stop-color="rgb(98.355103%, 22.801208%, 3.593445%)" offset="0.0859375"/><stop stop-opacity="1" stop-color="rgb(98.347473%, 23.161316%, 3.683472%)" offset="0.09375"/><stop stop-opacity="1" stop-color="rgb(98.339844%, 23.521423%, 3.771973%)" offset="0.101563"/><stop stop-opacity="1" stop-color="rgb(98.332214%, 23.881531%, 3.860474%)" offset="0.109375"/><stop stop-opacity="1" stop-color="rgb(98.323059%, 24.241638%, 3.9505%)" offset="0.117188"/><stop stop-opacity="1" stop-color="rgb(98.31543%, 24.60022%, 4.039001%)" offset="0.125"/><stop stop-opacity="1" stop-color="rgb(98.3078%, 24.960327%, 4.127502%)" offset="0.132812"/><stop stop-opacity="1" stop-color="rgb(98.300171%, 25.320435%, 4.217529%)" offset="0.140625"/><stop stop-opacity="1" stop-color="rgb(98.292542%, 25.680542%, 4.30603%)" offset="0.148438"/><stop stop-opacity="1" stop-color="rgb(98.284912%, 26.040649%, 4.394531%)" offset="0.15625"/><stop stop-opacity="1" stop-color="rgb(98.277283%, 26.400757%, 4.484558%)" offset="0.164062"/><stop stop-opacity="1" stop-color="rgb(98.269653%, 26.760864%, 4.573059%)" offset="0.171875"/><stop stop-opacity="1" stop-color="rgb(98.260498%, 27.120972%, 4.66156%)" offset="0.179688"/><stop stop-opacity="1" stop-color="rgb(98.252869%, 27.479553%, 4.751587%)" offset="0.1875"/><stop stop-opacity="1" stop-color="rgb(98.245239%, 27.839661%, 4.840088%)" offset="0.195312"/><stop stop-opacity="1" stop-color="rgb(98.23761%, 28.199768%, 4.928589%)" offset="0.203125"/><stop stop-opacity="1" stop-color="rgb(98.22998%, 28.559875%, 5.018616%)" offset="0.210938"/><stop stop-opacity="1" stop-color="rgb(98.222351%, 28.919983%, 5.107117%)" offset="0.21875"/><stop stop-opacity="1" stop-color="rgb(98.214722%, 29.28009%, 5.195618%)" offset="0.226563"/><stop stop-opacity="1" stop-color="rgb(98.207092%, 29.640198%, 5.285645%)" offset="0.234375"/><stop stop-opacity="1" stop-color="rgb(98.197937%, 30.000305%, 5.374146%)" offset="0.242187"/><stop stop-opacity="1" stop-color="rgb(98.190308%, 30.360413%, 5.462646%)" offset="0.25"/><stop stop-opacity="1" stop-color="rgb(98.182678%, 30.718994%, 5.552673%)" offset="0.257812"/><stop stop-opacity="1" stop-color="rgb(98.175049%, 31.079102%, 5.641174%)" offset="0.265625"/><stop stop-opacity="1" stop-color="rgb(98.167419%, 31.439209%, 5.729675%)" offset="0.273437"/><stop stop-opacity="1" stop-color="rgb(98.15979%, 31.799316%, 5.819702%)" offset="0.28125"/><stop stop-opacity="1" stop-color="rgb(98.152161%, 32.159424%, 5.908203%)" offset="0.289062"/><stop stop-opacity="1" stop-color="rgb(98.144531%, 32.519531%, 5.996704%)" offset="0.296875"/><stop stop-opacity="1" stop-color="rgb(98.135376%, 32.879639%, 6.086731%)" offset="0.304687"/><stop stop-opacity="1" stop-color="rgb(98.127747%, 33.239746%, 6.175232%)" offset="0.3125"/><stop stop-opacity="1" stop-color="rgb(98.120117%, 33.599854%, 6.263733%)" offset="0.320312"/><stop stop-opacity="1" stop-color="rgb(98.112488%, 33.958435%, 6.35376%)" offset="0.328125"/><stop stop-opacity="1" stop-color="rgb(98.104858%, 34.318542%, 6.442261%)" offset="0.335937"/><stop stop-opacity="1" stop-color="rgb(98.097229%, 34.67865%, 6.530762%)" offset="0.34375"/><stop stop-opacity="1" stop-color="rgb(98.0896%, 35.038757%, 6.620789%)" offset="0.351562"/><stop stop-opacity="1" stop-color="rgb(98.080444%, 35.398865%, 6.70929%)" offset="0.359375"/><stop stop-opacity="1" stop-color="rgb(98.072815%, 35.758972%, 6.797791%)" offset="0.367188"/><stop stop-opacity="1" stop-color="rgb(98.065186%, 36.11908%, 6.887817%)" offset="0.375"/><stop stop-opacity="1" stop-color="rgb(98.057556%, 36.479187%, 6.976318%)" offset="0.382812"/><stop stop-opacity="1" stop-color="rgb(98.049927%, 36.839294%, 7.064819%)" offset="0.390625"/><stop stop-opacity="1" stop-color="rgb(98.042297%, 37.197876%, 7.154846%)" offset="0.398438"/><stop stop-opacity="1" stop-color="rgb(98.034668%, 37.557983%, 7.243347%)" offset="0.40625"/><stop stop-opacity="1" stop-color="rgb(98.027039%, 37.918091%, 7.331848%)" offset="0.414063"/><stop stop-opacity="1" stop-color="rgb(98.017883%, 38.278198%, 7.421875%)" offset="0.421875"/><stop stop-opacity="1" stop-color="rgb(98.010254%, 38.638306%, 7.510376%)" offset="0.429688"/><stop stop-opacity="1" stop-color="rgb(98.002625%, 38.998413%, 7.598877%)" offset="0.4375"/><stop stop-opacity="1" stop-color="rgb(97.994995%, 39.358521%, 7.688904%)" offset="0.445313"/><stop stop-opacity="1" stop-color="rgb(97.987366%, 39.718628%, 7.777405%)" offset="0.453125"/><stop stop-opacity="1" stop-color="rgb(97.979736%, 40.078735%, 7.865906%)" offset="0.460938"/><stop stop-opacity="1" stop-color="rgb(97.972107%, 40.437317%, 7.955933%)" offset="0.46875"/><stop stop-opacity="1" stop-color="rgb(97.964478%, 40.797424%, 8.044434%)" offset="0.476562"/><stop stop-opacity="1" stop-color="rgb(97.955322%, 41.157532%, 8.132935%)" offset="0.484375"/><stop stop-opacity="1" stop-color="rgb(97.947693%, 41.517639%, 8.222961%)" offset="0.492188"/><stop stop-opacity="1" stop-color="rgb(97.940063%, 41.877747%, 8.311462%)" offset="0.5"/><stop stop-opacity="1" stop-color="rgb(97.932434%, 42.237854%, 8.399963%)" offset="0.507812"/><stop stop-opacity="1" stop-color="rgb(97.924805%, 42.597961%, 8.48999%)" offset="0.515625"/><stop stop-opacity="1" stop-color="rgb(97.917175%, 42.958069%, 8.578491%)" offset="0.523438"/><stop stop-opacity="1" stop-color="rgb(97.909546%, 43.318176%, 8.666992%)" offset="0.53125"/><stop stop-opacity="1" stop-color="rgb(97.901917%, 43.676758%, 8.757019%)" offset="0.539062"/><stop stop-opacity="1" stop-color="rgb(97.892761%, 44.036865%, 8.84552%)" offset="0.546875"/><stop stop-opacity="1" stop-color="rgb(97.885132%, 44.396973%, 8.934021%)" offset="0.554688"/><stop stop-opacity="1" stop-color="rgb(97.877502%, 44.75708%, 9.024048%)" offset="0.5625"/><stop stop-opacity="1" stop-color="rgb(97.869873%, 45.117188%, 9.112549%)" offset="0.570312"/><stop stop-opacity="1" stop-color="rgb(97.862244%, 45.477295%, 9.20105%)" offset="0.578125"/><stop stop-opacity="1" stop-color="rgb(97.854614%, 45.837402%, 9.291077%)" offset="0.585938"/><stop stop-opacity="1" stop-color="rgb(97.846985%, 46.19751%, 9.379578%)" offset="0.59375"/><stop stop-opacity="1" stop-color="rgb(97.839355%, 46.557617%, 9.468079%)" offset="0.601562"/><stop stop-opacity="1" stop-color="rgb(97.8302%, 46.916199%, 9.558105%)" offset="0.609375"/><stop stop-opacity="1" stop-color="rgb(97.822571%, 47.276306%, 9.646606%)" offset="0.617187"/><stop stop-opacity="1" stop-color="rgb(97.814941%, 47.636414%, 9.735107%)" offset="0.625"/><stop stop-opacity="1" stop-color="rgb(97.807312%, 47.996521%, 9.825134%)" offset="0.632812"/><stop stop-opacity="1" stop-color="rgb(97.799683%, 48.356628%, 9.913635%)" offset="0.640625"/><stop stop-opacity="1" stop-color="rgb(97.792053%, 48.716736%, 10.002136%)" offset="0.648438"/><stop stop-opacity="1" stop-color="rgb(97.784424%, 49.076843%, 10.092163%)" offset="0.65625"/><stop stop-opacity="1" stop-color="rgb(97.775269%, 49.436951%, 10.180664%)" offset="0.664062"/><stop stop-opacity="1" stop-color="rgb(97.767639%, 49.795532%, 10.269165%)" offset="0.671875"/><stop stop-opacity="1" stop-color="rgb(97.76001%, 50.15564%, 10.359192%)" offset="0.679687"/><stop stop-opacity="1" stop-color="rgb(97.75238%, 50.515747%, 10.447693%)" offset="0.6875"/><stop stop-opacity="1" stop-color="rgb(97.744751%, 50.875854%, 10.536194%)" offset="0.695312"/><stop stop-opacity="1" stop-color="rgb(97.737122%, 51.235962%, 10.626221%)" offset="0.703125"/><stop stop-opacity="1" stop-color="rgb(97.729492%, 51.596069%, 10.714722%)" offset="0.710938"/><stop stop-opacity="1" stop-color="rgb(97.721863%, 51.956177%, 10.803223%)" offset="0.71875"/><stop stop-opacity="1" stop-color="rgb(97.712708%, 52.316284%, 10.89325%)" offset="0.726562"/><stop stop-opacity="1" stop-color="rgb(97.705078%, 52.676392%, 10.98175%)" offset="0.734375"/><stop stop-opacity="1" stop-color="rgb(97.697449%, 53.034973%, 11.070251%)" offset="0.742188"/><stop stop-opacity="1" stop-color="rgb(97.689819%, 53.395081%, 11.160278%)" offset="0.75"/><stop stop-opacity="1" stop-color="rgb(97.68219%, 53.755188%, 11.248779%)" offset="0.757812"/><stop stop-opacity="1" stop-color="rgb(97.674561%, 54.115295%, 11.33728%)" offset="0.765625"/><stop stop-opacity="1" stop-color="rgb(97.666931%, 54.475403%, 11.427307%)" offset="0.773438"/><stop stop-opacity="1" stop-color="rgb(97.659302%, 54.83551%, 11.515808%)" offset="0.78125"/><stop stop-opacity="1" stop-color="rgb(97.650146%, 55.195618%, 11.604309%)" offset="0.789062"/><stop stop-opacity="1" stop-color="rgb(97.642517%, 55.555725%, 11.69281%)" offset="0.796875"/><stop stop-opacity="1" stop-color="rgb(97.634888%, 55.915833%, 11.782837%)" offset="0.804688"/><stop stop-opacity="1" stop-color="rgb(97.627258%, 56.274414%, 11.871338%)" offset="0.8125"/><stop stop-opacity="1" stop-color="rgb(97.619629%, 56.634521%, 11.959839%)" offset="0.820313"/><stop stop-opacity="1" stop-color="rgb(97.612%, 56.994629%, 12.049866%)" offset="0.828125"/><stop stop-opacity="1" stop-color="rgb(97.60437%, 57.354736%, 12.138367%)" offset="0.835938"/><stop stop-opacity="1" stop-color="rgb(97.599792%, 57.566833%, 12.190247%)" offset="0.84375"/><stop stop-opacity="1" stop-color="rgb(97.599792%, 57.598877%, 12.199402%)" offset="0.875"/><stop stop-opacity="1" stop-color="rgb(97.599792%, 57.598877%, 12.199402%)" offset="1"/></linearGradient></defs><g clip-path="url(#1214540133)"><g clip-path="url(#3f28b604eb)"><path fill="url(#1590fee803)" d="M 6.324219 90 L 6.324219 726 L 437.738281 726 L 437.738281 90 Z M 6.324219 90 " fill-rule="nonzero"/></g></g><g fill="#ffffff" fill-opacity="1"><g transform="translate(451.38039, 557.838003)"><g><path d="M 2.5625 -180.734375 L 2.5625 -157.03125 L 63.1875 -157.03125 L 63.1875 0 L 87.8125 0 L 87.8125 -157.03125 L 148.4375 -157.03125 L 148.4375 -180.734375 Z M 2.5625 -180.734375 "/></g></g></g><g fill="#ffffff" fill-opacity="1"><g transform="translate(601.852675, 557.838003)"><g><path d="M 16.71875 -180.734375 L 16.71875 0 L 41.34375 0 L 41.34375 -77.59375 L 137.984375 -77.59375 L 137.984375 0 L 162.609375 0 L 162.609375 -180.734375 L 137.984375 -180.734375 L 137.984375 -103.140625 L 41.34375 -103.140625 L 41.34375 -180.734375 Z M 16.71875 -180.734375 "/></g></g></g><g fill="#ffffff" fill-opacity="1"><g transform="translate(780.886884, 557.838003)"><g><path d="M 16.71875 -180.734375 L 16.71875 0 L 151 0 L 151 -23.6875 L 41.34375 -23.6875 L 41.34375 -78.515625 L 125.203125 -78.515625 L 125.203125 -102.203125 L 41.34375 -102.203125 L 41.34375 -157.03125 L 151 -157.03125 L 151 -180.734375 Z M 16.71875 -180.734375 "/></g></g></g><g fill="#ffffff" fill-opacity="1"><g transform="translate(935.074587, 557.838003)"><g/></g></g><g fill="#fd4c00" fill-opacity="1"><g transform="translate(1004.042485, 557.838003)"><g><path d="M 16.71875 -180.734375 L 16.71875 0 L 41.34375 0 L 41.34375 -77.59375 L 137.984375 -77.59375 L 137.984375 0 L 162.609375 0 L 162.609375 -180.734375 L 137.984375 -180.734375 L 137.984375 -103.140625 L 41.34375 -103.140625 L 41.34375 -180.734375 Z M 16.71875 -180.734375 "/></g></g></g><g fill="#fd4c00" fill-opacity="1"><g transform="translate(1183.076694, 557.838003)"><g><path d="M 42.515625 -180.734375 C 28.578125 -180.734375 16.71875 -168.875 16.71875 -154.9375 L 16.71875 -25.78125 C 16.71875 -11.84375 28.578125 0 42.515625 0 L 136.828125 0 C 150.765625 0 162.609375 -11.84375 162.609375 -25.78125 L 162.609375 -154.9375 C 162.609375 -168.875 150.765625 -180.734375 136.828125 -180.734375 Z M 52.265625 -157.03125 L 127.0625 -157.03125 C 133.109375 -157.03125 137.984375 -152.390625 137.984375 -146.34375 L 137.984375 -34.375 C 137.984375 -28.34375 133.109375 -23.6875 127.0625 -23.6875 L 52.265625 -23.6875 C 46.234375 -23.6875 41.34375 -28.34375 41.34375 -34.375 L 41.34375 -146.34375 C 41.34375 -152.390625 46.234375 -157.03125 52.265625 -157.03125 Z M 52.265625 -157.03125 "/></g></g></g><g fill="#fd4c00" fill-opacity="1"><g transform="translate(1362.110904, 557.838003)"><g><path d="M 2.5625 -180.734375 L 2.5625 -157.03125 L 63.1875 -157.03125 L 63.1875 0 L 87.8125 0 L 87.8125 -157.03125 L 148.4375 -157.03125 L 148.4375 -180.734375 Z M 2.5625 -180.734375 "/></g></g></g><g fill="#fd4c00" fill-opacity="1"><g transform="translate(1512.583188, 557.838003)"><g/></g></g><g fill="#ffffff" fill-opacity="1"><g transform="translate(1581.580771, 557.838003)"><g><path d="M 16.71875 -180.734375 L 16.71875 0 L 136.828125 0 C 151.21875 0 162.609375 -11.375 162.609375 -25.78125 L 162.609375 -65.96875 C 162.609375 -77.125 155.640625 -86.640625 145.875 -90.359375 C 155.640625 -94.078125 162.609375 -103.375 162.609375 -114.515625 L 162.609375 -154.9375 C 162.609375 -169.34375 151.21875 -180.734375 136.828125 -180.734375 Z M 41.34375 -78.515625 L 124.515625 -78.515625 C 131.9375 -78.515625 137.984375 -72.25 137.984375 -64.8125 L 137.984375 -34.375 C 137.984375 -28.34375 133.109375 -23.6875 127.0625 -23.6875 L 41.34375 -23.6875 Z M 41.34375 -102.203125 L 41.34375 -157.03125 L 127.0625 -157.03125 C 133.109375 -157.03125 137.984375 -152.390625 137.984375 -146.34375 L 137.984375 -115.6875 C 137.984375 -108.25 131.9375 -102.203125 124.515625 -102.203125 Z M 41.34375 -102.203125 "/></g></g></g><g fill="#ffffff" fill-opacity="1"><g transform="translate(1760.614981, 557.838003)"><g><path d="M 42.515625 -180.734375 C 28.578125 -180.734375 16.71875 -168.875 16.71875 -154.9375 L 16.71875 -25.78125 C 16.71875 -11.84375 28.578125 0 42.515625 0 L 136.828125 0 C 150.765625 0 162.609375 -11.84375 162.609375 -25.78125 L 162.609375 -154.9375 C 162.609375 -168.875 150.765625 -180.734375 136.828125 -180.734375 Z M 52.265625 -157.03125 L 127.0625 -157.03125 C 133.109375 -157.03125 137.984375 -152.390625 137.984375 -146.34375 L 137.984375 -34.375 C 137.984375 -28.34375 133.109375 -23.6875 127.0625 -23.6875 L 52.265625 -23.6875 C 46.234375 -23.6875 41.34375 -28.34375 41.34375 -34.375 L 41.34375 -146.34375 C 41.34375 -152.390625 46.234375 -157.03125 52.265625 -157.03125 Z M 52.265625 -157.03125 "/></g></g></g><g fill="#ffffff" fill-opacity="1"><g transform="translate(1939.64919, 557.838003)"><g><path d="M 2.5625 -180.734375 L 2.5625 -157.03125 L 63.1875 -157.03125 L 63.1875 0 L 87.8125 0 L 87.8125 -157.03125 L 148.4375 -157.03125 L 148.4375 -180.734375 Z M 2.5625 -180.734375 "/></g></g></g></svg>